<?xml version="1.0" encoding="utf-8"?>
<!-- Generator: Adobe Illustrator 27.2.0, SVG Export Plug-In . SVG Version: 6.00 Build 0)  -->
<svg version="1.1" id="Layer_1" xmlns="http://www.w3.org/2000/svg" xmlns:xlink="http://www.w3.org/1999/xlink" x="0px" y="0px"
	 viewBox="0 0 59 59" style="enable-background:new 0 0 59 59;" xml:space="preserve">
<style type="text/css">
	.st0{fill:#1F1F1F;}
</style>
<path class="st0" d="M58.8,30.6c0-4.4-2.4-8.2-5.9-10c0.4-1.2,0.7-2.5,0.7-3.9c0-6.1-4.7-11.1-10.6-11.1c-1.3,0-2.5,0.2-3.7,0.7
	c-1.7-3.7-5.3-6.2-9.5-6.2S22,2.7,20.3,6.4c-1.1-0.5-2.4-0.7-3.7-0.7C10.8,5.7,6,10.7,6,16.8c0,1.4,0.2,2.7,0.7,3.9
	c-3.5,1.8-5.9,5.6-5.9,10c0,4.1,2.2,7.7,5.4,9.6C6.1,40.7,6,41.2,6,41.7c0,6.1,4.7,11.1,10.6,11.1c1.3,0,2.5-0.2,3.7-0.7
	c1.7,3.7,5.3,6.2,9.5,6.2c4.2,0,7.8-2.5,9.5-6.2c1.1,0.5,2.4,0.7,3.7,0.7c5.8,0,10.6-5,10.6-11.1c0-0.5,0-1-0.1-1.4
	C56.7,38.4,58.8,34.7,58.8,30.6L58.8,30.6z"/>
</svg>
